<svg width="24" height="24" viewBox="0 0 24 24" fill="none" xmlns="http://www.w3.org/2000/svg">
<path d="M20 10.758C19.9598 12.9272 19.2502 14.764 17.746 16.2641C16.3401 17.668 14.894 19.0325 13.4478 20.397C12.5953 21.2061 11.4081 21.1973 10.5601 20.3926C9.15411 19.0587 7.72584 17.7423 6.36899 16.3603C4.15964 14.1124 3.45444 11.4271 4.42744 8.45754C5.40491 5.453 7.60087 3.66426 10.7698 3.11321C15.2778 2.33037 19.634 5.70665 19.9598 10.1763C19.9777 10.395 19.9911 10.6136 20 10.758ZM12.0419 8.58C10.7073 8.57125 9.62722 9.60338 9.61829 10.9023C9.60937 12.1968 10.685 13.2683 12.0017 13.2727C13.3005 13.2814 14.3896 12.2318 14.4074 10.9591C14.4208 9.65586 13.363 8.58874 12.0419 8.58Z" fill="black"/>
</svg>
