<svg width="24" height="24" viewBox="0 0 24 24" fill="red" xmlns="http://www.w3.org/2000/svg">
<path d="M11.0799 3C11.6883 3 12.3001 3 12.9085 3C12.9542 3.00703 12.9999 3.02109 13.0456 3.02461C13.8896 3.09842 14.7371 3.15467 15.581 3.25309C16.1085 3.31636 16.643 3.39369 17.1459 3.5589C18.1727 3.89636 18.9639 4.57829 19.6321 5.41138C20.0681 5.95622 20.4444 6.54676 20.5604 7.23924C20.7187 8.20941 20.8136 9.18662 20.9332 10.1638C20.9648 10.4239 20.9789 10.6841 21 10.9477C21 11.591 21 12.2377 21 12.881C20.993 12.9302 20.9789 12.983 20.9754 13.0322C20.9121 13.7914 20.8699 14.5507 20.782 15.3065C20.7152 15.8864 20.6483 16.477 20.4796 17.0324C20.1525 18.1291 19.4352 18.9692 18.549 19.6687C18.0145 20.0905 17.4342 20.435 16.7591 20.5616C15.363 20.8252 13.9529 20.9658 12.5357 20.9939C11.0693 21.0256 9.60647 20.9342 8.15766 20.7092C7.66183 20.6319 7.15194 20.5616 6.69127 20.3788C5.5484 19.9359 4.68686 19.1239 4.02223 18.1045C3.75146 17.6897 3.52992 17.2468 3.43849 16.7617C3.2275 15.6439 3.09739 14.5155 3.03761 13.3802C2.95321 11.7984 3.00947 10.2201 3.22047 8.6488C3.29431 8.08287 3.36113 7.50287 3.5264 6.95803C3.84992 5.8578 4.57433 5.01768 5.46752 4.31817C6.00204 3.89987 6.58578 3.54484 7.26447 3.43939C8.25964 3.28473 9.26185 3.18279 10.2605 3.06327C10.5313 3.03164 10.8091 3.02109 11.0799 3ZM6.37479 15.3838C6.41698 15.3873 6.44512 15.3943 6.47325 15.3943C7.56337 15.3943 8.65349 15.3943 9.7401 15.3943C10.4293 15.3943 11.0588 15.2151 11.5898 14.7546C11.8606 14.5191 12.0469 14.2273 12.0927 13.8723C12.1278 13.584 12.1313 13.2888 12.1173 12.997C12.0962 12.5822 11.8887 12.2483 11.5617 12.0022C11.3647 11.8546 11.1432 11.7386 10.9252 11.6085C10.9674 11.5839 11.0166 11.5523 11.0658 11.5242C12.0047 11.011 12.163 9.36237 11.0693 8.77886C10.7318 8.59959 10.3801 8.48711 9.9968 8.48711C8.8258 8.48359 7.6548 8.48711 6.4838 8.48711C6.45215 8.48711 6.41698 8.49414 6.3783 8.49765C6.37479 10.7895 6.37479 13.0779 6.37479 15.3838ZM17.4975 13.8336C17.1459 13.8336 16.8189 13.8371 16.4918 13.8301C16.3758 13.8266 16.3054 13.8582 16.2351 13.9602C15.785 14.6069 14.8355 14.6948 14.3045 14.1429C14.0619 13.8899 13.9634 13.584 13.9916 13.2255C15.2048 13.2255 16.3969 13.2255 17.589 13.2255C17.6488 13.0005 17.6312 12.5928 17.5538 12.2413C17.2233 10.7544 15.7217 9.87207 14.3186 10.3431C13.0491 10.7684 12.3247 12.1393 12.6342 13.5278C12.9296 14.8354 14.0971 15.658 15.4439 15.5033C16.0417 15.433 16.5833 15.2397 17.0017 14.7827C17.2444 14.5155 17.4061 14.2062 17.4975 13.8336ZM16.4883 8.94408C15.5459 8.94408 14.6245 8.94408 13.6962 8.94408C13.6962 9.17607 13.6962 9.40104 13.6962 9.62601C14.6351 9.62601 15.5564 9.62601 16.4883 9.62601C16.4883 9.39401 16.4883 9.17607 16.4883 8.94408Z" fill="black"/>
<path d="M7.901 12.3257C8.04518 12.3257 8.17881 12.3257 8.31243 12.3257C8.79771 12.3327 9.28651 12.3116 9.76827 12.3538C10.4399 12.4136 10.8021 12.99 10.5911 13.5982C10.454 13.9919 10.1305 14.1711 9.75421 14.1922C9.14233 14.2239 8.52694 14.2028 7.90452 14.2028C7.901 13.5876 7.901 12.9725 7.901 12.3257Z" fill="black"/>
<path d="M7.89392 11.257C7.89392 10.7192 7.89392 10.2095 7.89392 9.69276C7.92556 9.68573 7.95016 9.67518 7.97828 9.67518C8.49501 9.67518 9.00822 9.66464 9.52494 9.6787C10.126 9.69627 10.4705 10.1181 10.344 10.6629C10.2666 10.9969 10.0276 11.1586 9.71476 11.2183C9.54954 11.25 9.3773 11.2535 9.20858 11.2535C8.77622 11.2605 8.34386 11.257 7.89392 11.257Z" fill="black"/>
<path d="M16.1921 12.3396C15.461 12.3396 14.7333 12.3396 14.0022 12.3396C14.0092 11.7737 14.5119 11.2745 15.0813 11.2675C15.6578 11.257 16.1535 11.735 16.1921 12.3396Z" fill="black"/>
</svg>
