<svg width="24" height="24" viewBox="0 0 24 24" fill="none" xmlns="http://www.w3.org/2000/svg">
<path d="M3 12.5609C3 12.1846 3 11.8117 3 11.4353C3.01406 11.3192 3.02812 11.2031 3.04218 11.0905C3.2531 9.16282 3.97022 7.44616 5.28143 6.01796C7.48904 3.61183 10.2345 2.64445 13.4615 3.11583C15.2965 3.38669 16.8995 4.19577 18.2177 5.50085C20.5589 7.81904 21.4448 10.6297 20.7909 13.852C20.232 16.6063 18.6255 18.6361 16.1613 19.9799C15.6375 20.2648 15.0821 20.4829 14.495 20.6447C14.495 18.425 14.495 16.2159 14.495 13.9892C15.1418 13.9892 15.7746 13.9892 16.4214 13.9892C16.5198 13.2328 16.6148 12.4906 16.7132 11.7272C15.9574 11.7272 15.2262 11.7272 14.4985 11.7272C14.4915 11.685 14.4845 11.6604 14.4845 11.6393C14.4845 11.1292 14.4775 10.6192 14.4915 10.1091C14.5056 9.54625 14.8044 9.24372 15.3668 9.21558C15.7711 9.19799 16.1753 9.20503 16.5796 9.20151C16.6429 9.20151 16.7026 9.20151 16.7659 9.20151C16.7659 8.51555 16.7659 7.85422 16.7659 7.18233C16.0453 7.12253 15.3317 7.04514 14.6216 7.13308C14.2736 7.1753 13.915 7.27027 13.5986 7.42154C12.66 7.87181 12.2523 8.69144 12.1785 9.68696C12.1363 10.2955 12.1609 10.9041 12.1538 11.5162C12.1538 11.583 12.1538 11.6534 12.1538 11.7413C11.4965 11.7413 10.8672 11.7413 10.231 11.7413C10.231 12.4976 10.231 13.2328 10.231 13.9892C10.8708 13.9892 11.5035 13.9892 12.1538 13.9892C12.1538 14.0701 12.1538 14.1334 12.1538 14.1967C12.1538 16.4023 12.1538 18.6044 12.1538 20.81C12.1538 20.8734 12.1433 20.9367 12.1363 21C11.9007 21 11.6687 21 11.4332 21C11.3945 20.9894 11.3559 20.9754 11.3172 20.9719C10.231 20.8909 9.19044 20.6377 8.21319 20.1593C5.4361 18.8049 3.73821 16.6063 3.14061 13.567C3.07382 13.2364 3.0457 12.8951 3 12.5609Z" fill="black"/>
</svg>
