<svg width="24" height="24" viewBox="0 0 24 24" fill="none" xmlns="http://www.w3.org/2000/svg">
<path d="M20.9986 12.2395C20.9816 13.7545 20.8459 15.2568 20.5616 16.7463C20.5023 17.0646 20.3792 17.3786 20.2265 17.6629C19.5393 18.9615 18.5382 19.9375 17.1426 20.4425C16.659 20.6165 16.1288 20.6674 15.6155 20.7438C14.2454 20.939 12.8667 21.0239 11.4839 20.9942C10.0586 20.9645 8.64174 20.8287 7.2419 20.5614C6.58015 20.434 6.00749 20.0988 5.48148 19.6872C4.58219 18.9827 3.85681 18.1382 3.5217 17.0306C3.3605 16.4917 3.29687 15.9188 3.22052 15.3586C3.0169 13.8097 2.95328 12.2565 3.03387 10.6948C3.09326 9.5363 3.22052 8.38202 3.43686 7.24472C3.56412 6.58695 3.89499 6.01829 4.29798 5.49632C4.93427 4.66881 5.70207 3.98982 6.6862 3.62062C7.15706 3.44239 7.67033 3.366 8.17089 3.28961C9.90161 3.02651 11.6408 2.94163 13.3885 3.03924C14.5169 3.10289 15.641 3.22596 16.7524 3.43814C17.2826 3.53999 17.762 3.78188 18.1989 4.08742C19.2806 4.83855 20.1332 5.78065 20.5065 7.06648C20.655 7.57572 20.7059 8.11043 20.7737 8.64088C20.9392 9.82911 21.0113 11.0343 20.9986 12.2395ZM11.9971 17.6247C12.7819 17.6247 13.5667 17.6332 14.3514 17.6247C16.1373 17.5993 17.605 16.1267 17.622 14.3359C17.6347 12.7827 17.6347 11.2295 17.622 9.67634C17.6092 7.88551 16.15 6.40447 14.3599 6.37901C12.7904 6.35779 11.2209 6.35779 9.65133 6.37901C7.85274 6.40447 6.3935 7.88975 6.38078 9.68483C6.3723 11.238 6.36805 12.7912 6.38078 14.3444C6.39775 16.1225 7.86971 17.595 9.64285 17.6205C10.4276 17.6332 11.2124 17.6247 11.9971 17.6247Z" fill="black"/>
<path d="M11.9929 16.5002C11.2548 16.5002 10.5167 16.5002 9.77858 16.5002C8.48054 16.4959 7.50913 15.5284 7.50489 14.234C7.50065 12.753 7.50065 11.2677 7.50489 9.78666C7.50489 8.48386 8.48054 7.50781 9.78282 7.50781C11.259 7.50781 12.7352 7.50781 14.2114 7.50781C15.518 7.50781 16.4894 8.47961 16.4936 9.78242C16.4978 11.2635 16.4978 12.7487 16.4936 14.2298C16.4894 15.5284 15.518 16.4959 14.2242 16.4959C13.4818 16.5002 12.7352 16.5002 11.9929 16.5002ZM11.9971 9.09919C10.3682 9.11616 9.0829 10.4147 9.09563 12.0273C9.10411 13.6314 10.4276 14.9258 12.0438 14.913C13.6176 14.9003 14.9241 13.572 14.9114 12.0019C14.8986 10.3893 13.5879 9.08221 11.9971 9.09919ZM14.2157 9.10343C14.2199 9.49385 14.5465 9.81637 14.9368 9.81213C15.3271 9.80788 15.6495 9.47263 15.641 9.08646C15.6325 8.68755 15.3101 8.37352 14.9198 8.37777C14.5253 8.38625 14.2114 8.70877 14.2157 9.10343Z" fill="black"/>
<path d="M13.7788 11.985C13.8 12.9399 13.011 13.7546 12.0353 13.7843C11.0597 13.8098 10.241 13.0205 10.2198 12.0275C10.1986 11.0599 10.9791 10.2536 11.9505 10.2282C12.9516 10.2027 13.7576 10.975 13.7788 11.985Z" fill="black"/>
</svg>
