<svg width="24" height="24" viewBox="0 0 24 24" fill="none" xmlns="http://www.w3.org/2000/svg">
<path d="M3 17.2842C3 13.8108 3 10.3412 3 6.86777C3.01757 6.82947 3.03515 6.79501 3.06678 6.72607C3.10895 6.78735 3.13707 6.83713 3.17573 6.87543C4.62021 8.44939 6.06469 10.0272 7.51269 11.6011C8.11368 12.256 8.71467 12.9109 9.31566 13.5657C10.0326 14.3431 10.8937 14.7644 11.9059 14.7912C12.9989 14.818 13.9303 14.3891 14.7 13.5504C16.7279 11.3407 18.7593 9.12722 20.7872 6.91755C20.8364 6.86394 20.8856 6.81415 20.9664 6.73373C20.977 6.90606 20.9945 7.04393 20.9945 7.18179C20.9945 10.4063 20.998 13.627 20.9945 16.8515C20.9945 17.0813 20.984 17.311 20.9488 17.537C20.6431 19.5513 19.1142 20.9836 17.2304 20.9913C13.7405 21.0028 10.247 21.0028 6.75706 20.9913C5.02087 20.976 3.56584 19.739 3.12301 17.9353C3.07029 17.7208 3.03866 17.5025 3 17.2842Z" fill="black"/>
<path d="M6.58487 3C10.1943 3 13.8003 3 17.4097 3C17.7471 3.07659 18.0915 3.11872 18.4184 3.22978C19.2865 3.53231 19.9507 4.12973 20.4322 4.97607C20.4006 5.01436 20.3795 5.04117 20.3549 5.06798C18.1021 7.52274 15.8528 9.98133 13.5964 12.4284C12.6791 13.4203 11.2909 13.405 10.37 12.4016C8.13831 9.97367 5.90656 7.54189 3.67482 5.1101C3.63616 5.06798 3.5975 5.01819 3.55884 4.97224C4.01222 4.191 4.60969 3.61273 5.39344 3.30637C5.77652 3.15701 6.18773 3.09957 6.58487 3Z" fill="black"/>
</svg>
