<svg width="24" height="24" viewBox="0 0 24 24" fill="none" xmlns="http://www.w3.org/2000/svg">
<path d="M6.48019 3C6.69113 3 6.90207 3 7.11301 3C7.15169 3.01055 7.18684 3.02814 7.22552 3.03517C7.77045 3.15123 8.23452 3.39742 8.57906 3.8476C9.05016 4.45955 9.5283 5.06799 10.0029 5.67643C10.6744 6.5381 10.6568 7.76553 9.95721 8.59905C9.60212 9.02109 9.25759 9.45368 8.88141 9.85462C8.68805 10.0621 8.67398 10.2204 8.79703 10.4736C9.85525 12.6788 11.469 14.3107 13.7155 15.2954C13.8034 15.3341 13.8667 15.3447 13.951 15.2743C14.4151 14.8699 14.8897 14.4795 15.3573 14.0785C16.1976 13.347 17.4421 13.3118 18.321 13.9941C18.9293 14.4689 19.5375 14.9507 20.1492 15.4185C20.557 15.7315 20.7996 16.1465 20.9297 16.6354C20.9543 16.7303 20.9754 16.8253 21 16.9203C21 17.1067 21 17.2966 21 17.483C20.9895 17.5217 20.9719 17.5568 20.9648 17.5955C20.9016 17.9472 20.782 18.2778 20.5535 18.5557C20.2301 18.9496 19.9101 19.3505 19.5445 19.7022C18.4054 20.803 17.0238 21.1442 15.4804 20.9472C14.2569 20.7925 13.1108 20.3951 12.028 19.8218C8.85328 18.1582 6.37823 15.7456 4.55007 12.6647C3.72389 11.272 3.1438 9.78428 3.01723 8.14888C2.93637 7.10433 3.13677 6.12309 3.68873 5.21922C4.1739 4.4279 4.90516 3.88277 5.61884 3.32356C5.75947 3.21102 5.95284 3.16178 6.12862 3.09496C6.24112 3.05275 6.36417 3.03165 6.48019 3Z" fill="black"/>
</svg>
