<svg width="104" height="73" viewBox="0 0 104 73" fill="none" xmlns="http://www.w3.org/2000/svg">
<g clip-path="url(#clip0_6_115)">
<path d="M104 38.7204C102.757 40.5123 101.748 42.46 100.35 43.9402C96 48.4589 91.5728 52.8997 87.1456 57.2625C84.6602 59.6777 81.5534 60.2231 78.6019 58.8207C75.8058 57.4963 73.9417 54.6137 74.4854 51.5752C74.7961 49.7834 75.7281 47.9136 76.8932 46.5891C79.301 43.7844 82.0971 41.2914 84.7379 38.6425C85.1262 38.175 85.5922 37.7855 86.1359 37.1622C83.0291 34.0459 79.9223 31.0075 76.8932 27.8911C74.7184 25.8655 73.7864 23.3725 74.5631 20.4899C75.9612 15.1921 82.3301 12.9328 86.3689 16.5945C91.8835 21.7364 97.0874 27.19 102.369 32.6435C103.146 33.4226 103.456 34.6692 104 35.7599C104 36.6948 104 37.7076 104 38.7204Z" fill="black"/>
<path d="M66.9514 7.5571C66.7961 8.41409 66.6408 9.34898 66.4078 10.2839C61.5922 28.9819 56.8544 47.6798 52.0388 66.3778C50.8738 70.8965 47.4563 73.4675 43.4951 72.8442C39.1456 72.143 36.3495 68.0139 37.5145 63.5731C41.3204 48.6147 45.1262 33.7343 48.932 18.7759C50.0971 14.2572 51.1845 9.73853 52.4272 5.29776C53.3592 1.8698 56.3883 -0.155818 59.8058 -0.0779095C63.1456 0.0779069 66.0194 2.41515 66.7961 5.84312C66.7961 6.38847 66.8738 6.93383 66.9514 7.5571Z" fill="black"/>
<path d="M17.8641 37.2401C21.2815 40.5902 24.5437 43.6286 27.5728 46.9007C31.6893 51.2636 29.6699 58.1195 23.8447 59.444C21.2815 59.9893 19.0291 59.3661 17.165 57.4963C12.1165 52.5101 7.06795 47.4461 2.09708 42.3821C-0.776706 39.3436 -0.699036 34.9808 2.25242 31.9424C7.14562 26.9562 12.1165 22.048 17.0874 17.1398C20.1942 14.1014 24.6214 14.1793 27.5728 17.0619C30.5243 19.9445 30.6019 24.4632 27.5728 27.5795C24.466 30.7737 21.2815 33.8901 17.8641 37.2401Z" fill="black"/>
</g>
<defs>
<clipPath id="clip0_6_115">
<rect width="104" height="73" fill="white"/>
</clipPath>
</defs>
</svg>
