<svg width="388" height="168" viewBox="0 0 388 168" fill="none" xmlns="http://www.w3.org/2000/svg">
<g clip-path="url(#clip0_1_40)">
<path d="M251.9 95.4001C252 99.3001 254.8 102.1 258.5 102.1C262.2 102.1 265 99.1001 265 95.2001C265 82.4001 256.9 70.5001 245 65.5001C239.7 63.3001 234.2 62.7001 228.5 62.9001C227.6 62.9001 226.7 62.9001 225.7 62.9001C225.7 61.5001 225.7 60.4001 225.7 59.2001C225.7 48.0001 217 39.4001 205.8 39.3001C201.7 39.3001 197.6 39.3001 193.5 39.3001C189.4 39.3001 186.4 36.5001 186.5 32.7001C186.5 28.9001 189.4 26.2001 193.6 26.2001C198 26.2001 202.4 26.3001 206.8 26.2001C217.1 26.0001 225.8 17.1001 225.7 6.8001C225.7 3.0001 222.9 0.1001 219.3 0.1001C215.7 0.000100441 212.8 2.7001 212.6 6.5001C212.4 10.7001 209.7 13.2001 205.5 13.2001C201.4 13.2001 197.2 13.2001 193.1 13.2001C182.1 13.3001 173.4 22.0001 173.4 32.8001C173.4 43.7001 182.2 52.4001 193.2 52.5001C197.5 52.5001 201.8 52.5001 206.1 52.5001C209.4 52.5001 212 54.8001 212.5 58.0001C212.7 59.6001 212.5 61.2001 212.5 63.0001C210 63.0001 207.7 63.0001 205.3 63.0001C188.1 63.3001 173.6 77.7001 173.4 94.9001C173.3 104.2 173.3 113.5 173.4 122.9C173.6 141.7 186.2 159 204 165C207.7 166.3 211.7 166.8 215.6 167.7C218 167.7 220.4 167.7 222.8 167.7C223.2 167.6 223.6 167.5 224.1 167.4C232.4 166.5 239.9 163.7 246.5 158.6C252.9 153.7 257.7 147.9 260.8 141.3C261.1 140.4 261.4 139.5 261.7 138.5C263 134 259.6 129.8 255 130.1C252 130.3 249.6 132.9 248.6 136.4C243.4 146.7 233 154.1 221 154.6C202.1 155.4 186.7 140.7 186.6 121.7C186.6 113.1 186.6 104.6 186.6 96.0001C186.6 84.8001 195.3 76.1001 206.5 76.1001C215 76.1001 223.5 76.1001 232 76.1001C243 75.9001 251.5 84.2001 251.9 95.4001Z" fill="url(#paint0_linear_1_40)"/>
<path d="M212.6 108.6C212.7 112.3 215.5 115.1 219.1 115.1C222.7 115.1 225.6 112.3 225.6 108.5C225.7 104.1 225.7 99.8001 225.6 95.4001C225.6 91.7001 222.7 88.9001 219.1 88.9001C215.5 88.9001 212.6 91.7001 212.6 95.5001C212.6 97.6001 212.6 99.7001 212.6 101.9C212.6 104.1 212.6 106.4 212.6 108.6Z" fill="url(#paint1_linear_1_40)"/>
<path d="M21.5 110.3V103H40.2V120.1C38.4 121.9 35.8 123.4 32.3 124.7C28.8 126 25.4 126.7 21.8 126.7C17.3 126.7 13.4 125.8 10.1 123.9C6.8 122 4.3 119.3 2.6 115.8C0.9 112.3 0 108.6 0 104.4C0 100 0.9 96.0001 2.8 92.5001C4.7 89.0001 7.4 86.4001 11 84.5001C13.8 83.1001 17.2 82.4001 21.3 82.4001C26.6 82.4001 30.8 83.5001 33.8 85.8001C36.8 88.1001 38.7 91.1001 39.6 95.1001L31 96.6001C30.4 94.5001 29.3 92.8001 27.6 91.6001C25.9 90.4001 23.8 89.8001 21.3 89.8001C17.5 89.8001 14.5 91.0001 12.3 93.4001C10.1 95.8001 8.9 99.4001 8.9 104.1C8.9 109.2 10 113 12.3 115.6C14.6 118.2 17.5 119.4 21.2 119.4C23 119.4 24.8 119 26.7 118.3C28.6 117.6 30.1 116.7 31.4 115.7V110.3H21.5Z" fill="white"/>
<path d="M68.6 126.1V121.4C67.5 123.1 66 124.4 64.1 125.3C62.2 126.2 60.3 126.7 58.3 126.7C56.2 126.7 54.3 126.2 52.7 125.3C51.1 124.4 49.8 123.1 49.1 121.4C48.4 119.7 48 117.4 48 114.5V94.9001H56.2V109.2C56.2 113.6 56.4 116.3 56.7 117.2C57 118.1 57.6 119 58.4 119.5C59.2 120 60.2 120.4 61.4 120.4C62.8 120.4 64.1 120 65.2 119.2C66.3 118.4 67.1 117.5 67.5 116.3C67.9 115.1 68.1 112.4 68.1 107.9V94.9001H76.3V126H68.6V126.1Z" fill="white"/>
<path d="M84.8 90.7001V83.1001H93V90.7001H84.8ZM84.8 126.1V94.9001H93V126H84.8V126.1Z" fill="white"/>
<path d="M101.4 126.1V83.1001H109.6V126H101.4V126.1Z" fill="white"/>
<path d="M132.4 94.9V101.5H126.8V114C126.8 116.5 126.9 118 127 118.4C127.1 118.8 127.4 119.2 127.7 119.4C128 119.6 128.5 119.8 129.1 119.8C129.9 119.8 131 119.5 132.4 119L133.1 125.4C131.2 126.2 129 126.6 126.6 126.6C125.1 126.6 123.8 126.4 122.6 125.9C121.4 125.4 120.5 124.8 120 124C119.5 123.2 119.1 122.1 118.8 120.8C118.6 119.8 118.5 117.9 118.5 115V101.4H114.7V94.8H118.5V88.6L126.8 83.8V94.8H132.4V94.9Z" fill="white"/>
<path d="M134.2 94.9001H143L150.4 117L157.7 94.9001H166.2L155.2 124.8L153.2 130.2C152.5 132 151.8 133.4 151.1 134.4C150.4 135.4 149.7 136.1 148.8 136.7C147.9 137.3 146.9 137.8 145.7 138.1C144.5 138.4 143.1 138.6 141.5 138.6C139.9 138.6 138.4 138.4 136.8 138.1L136.1 131.7C137.4 132 138.6 132.1 139.6 132.1C141.5 132.1 142.9 131.5 143.8 130.4C144.7 129.3 145.4 127.8 145.9 126.1L134.2 94.9001Z" fill="white"/>
<path d="M271.2 109.4C271.2 104.7 272.8 100.7 276 97.7001C279.2 94.7001 283.5 93.1001 289 93.1001C295.2 93.1001 299.9 94.9001 303.1 98.5001C305.7 101.4 306.9 105 306.9 109.3C306.9 114.1 305.3 118 302.1 121.1C298.9 124.2 294.5 125.7 288.9 125.7C283.9 125.7 279.9 124.4 276.8 121.9C273.1 118.7 271.2 114.5 271.2 109.4ZM283.2 109.4C283.2 112.2 283.8 114.2 284.9 115.6C286 117 287.4 117.6 289.1 117.6C290.8 117.6 292.2 116.9 293.3 115.6C294.4 114.3 295 112.2 295 109.3C295 106.6 294.4 104.6 293.3 103.3C292.2 102 290.8 101.3 289.2 101.3C287.5 101.3 286 102 284.9 103.3C283.8 104.6 283.2 106.7 283.2 109.4Z" fill="white"/>
<path d="M345.5 82V124.9H334.3V120.3C332.7 122.3 331.3 123.6 330 124.3C328.3 125.2 326.4 125.6 324.3 125.6C320.1 125.6 316.8 124 314.6 120.8C312.4 117.6 311.2 113.7 311.2 109.1C311.2 103.9 312.4 100 314.9 97.3C317.4 94.6 320.5 93.2 324.3 93.2C326.2 93.2 327.8 93.5 329.4 94.1C331 94.7 332.3 95.7 333.4 96.9V82H345.5ZM333.5 109.3C333.5 106.9 333 105 331.9 103.8C330.8 102.6 329.6 102 328 102C326.6 102 325.5 102.6 324.5 103.7C323.5 104.8 323.1 106.8 323.1 109.5C323.1 112 323.6 113.9 324.6 115.1C325.6 116.3 326.8 116.9 328.2 116.9C329.7 116.9 331 116.3 332 115.1C333 113.9 333.5 112 333.5 109.3Z" fill="white"/>
<path d="M387.3 112.3H363.4C363.6 114.2 364.1 115.6 365 116.6C366.2 117.9 367.7 118.6 369.5 118.6C370.7 118.6 371.8 118.3 372.8 117.7C373.4 117.3 374.1 116.7 374.9 115.7L386.6 116.8C384.8 119.9 382.6 122.2 380.1 123.5C377.6 124.8 373.9 125.5 369.2 125.5C365.1 125.5 361.8 124.9 359.5 123.8C357.2 122.7 355.2 120.8 353.6 118.3C352 115.8 351.3 112.8 351.3 109.4C351.3 104.5 352.9 100.6 356 97.6001C359.1 94.6001 363.4 93.1001 368.9 93.1001C373.4 93.1001 376.9 93.8001 379.4 95.1001C381.9 96.4001 383.9 98.4001 385.3 101C386.7 103.6 387.3 106.9 387.3 111V112.3ZM375.1 106.6C374.9 104.3 374.2 102.6 373.2 101.6C372.2 100.6 370.9 100.1 369.2 100.1C367.3 100.1 365.8 100.9 364.7 102.4C364 103.3 363.5 104.7 363.3 106.6H375.1Z" fill="white"/>
</g>
<defs>
<linearGradient id="paint0_linear_1_40" x1="249.987" y1="156.767" x2="172.225" y2="22.0785" gradientUnits="userSpaceOnUse">
<stop stop-color="#2FE1E0"/>
<stop offset="0.3126" stop-color="#58A9E8"/>
<stop offset="0.7837" stop-color="#9359F4"/>
<stop offset="1" stop-color="#AA39F9"/>
</linearGradient>
<linearGradient id="paint1_linear_1_40" x1="212.608" y1="102.047" x2="225.727" y2="102.047" gradientUnits="userSpaceOnUse">
<stop stop-color="#2FE1E0"/>
<stop offset="0.3126" stop-color="#58A9E8"/>
<stop offset="0.7837" stop-color="#9359F4"/>
<stop offset="1" stop-color="#AA39F9"/>
</linearGradient>
<clipPath id="clip0_1_40">
<rect width="387.3" height="167.5" fill="white"/>
</clipPath>
</defs>
</svg>
